C:\Users\r0593348\3dpredictsim\Results\batch_windlass\Pog_s1_tmt_bCst_d00_k1000_WL40_ig24_act_TTC_GRF.mot
nRows=30
nColumns=19

name C:\Users\r0593348\3dpredictsim\Results\batch_windlass\Pog_s1_tmt_bCst_d00_k1000_WL40_ig24_act_TTC_GRF.mot
datacolumns 19
datarows 30
range 0.0000000000 0.3571787439
endheader
time 	ground_force_vx	ground_force_vy	ground_force_vz	ground_force_px	ground_force_py	ground_force_pz	1_ground_force_vx	1_ground_force_vy	1_ground_force_vz	1_ground_force_px	1_ground_force_py	1_ground_force_pz	ground_torque_x	ground_torque_y	ground_torque_z	1_ground_torque_x	1_ground_torque_y	1_ground_torque_z
        0.0000000000	      -42.4542171135	       30.1073503763	       10.4259206210	        0.1708534336	        0.0000000000	        0.0570716439	       44.5072494195	      246.2189901107	       -7.1011721220	       -0.3539952709	        0.0000000000	       -0.0125842241	        0.0000000000	        0.0000000000	        0.0000000000	        0.0000000000	        0.0000000000	        0.0000000000	
        0.0123165084	     -118.0930155497	      100.9000266596	       33.6333914919	        0.1822611394	        0.0000000000	        0.0542858290	       33.7943204673	      194.7864953454	      -10.2827989387	       -0.3497675867	        0.0000000000	       -0.0098182497	        0.0000000000	        0.0000000000	        0.0000000000	        0.0000000000	        0.0000000000	        0.0000000000	
        0.0246330168	     -115.1319584147	      269.3250304381	       36.3089528606	        0.1900324205	        0.0000000000	        0.0523888087	       27.2214967270	      142.4561380192	      -16.0766571365	       -0.3496234122	        0.0000000000	       -0.0103404125	        0.0000000000	        0.0000000000	        0.0000000000	        0.0000000000	        0.0000000000	        0.0000000000	
        0.0369495252	      -80.1211002057	      551.9726806188	       -4.9107677272	        0.1953558227	        0.0000000000	        0.0518174068	       15.7012706129	       77.4102576606	      -12.8560454023	       -0.3493829883	        0.0000000000	       -0.0104407002	        0.0000000000	        0.0000000000	        0.0000000000	        0.0000000000	        0.0000000000	        0.0000000000	
        0.0492660336	     -114.4516396517	      855.9058404581	      -29.5673685235	        0.2064702621	        0.0000000000	        0.0534982084	       -4.2397520034	       14.5714489400	       -2.0835674060	       -0.3529382421	        0.0000000000	       -0.0096657838	        0.0000000000	        0.0000000000	        0.0000000000	        0.0000000000	        0.0000000000	        0.0000000000	
        0.0615825420	     -149.6149298082	      991.8555368276	      -34.4360948481	        0.2144700456	        0.0000000000	        0.0548065746	        0.0902359689	       -0.0816446336	       -0.0079597410	        0.0000000000	        0.0000000000	        0.0000000000	        0.0000000000	        0.0000000000	        0.0000000000	        0.0000000000	        0.0000000000	        0.0000000000	
        0.0738990505	     -156.6072605110	      986.5049880396	      -32.5726147927	        0.2205584282	        0.0000000000	        0.0556499939	       -2.5697872458	        2.0150408029	        0.2891679425	        0.0000000000	        0.0000000000	        0.0000000000	        0.0000000000	        0.0000000000	        0.0000000000	        0.0000000000	        0.0000000000	        0.0000000000	
        0.0862155589	     -152.7206353948	      941.3338915362	      -26.2208424860	        0.2255130290	        0.0000000000	        0.0558997025	       -4.8319597870	        3.2330920347	        0.5926730298	        0.0000000000	        0.0000000000	        0.0000000000	        0.0000000000	        0.0000000000	        0.0000000000	        0.0000000000	        0.0000000000	        0.0000000000	
        0.0985320673	     -132.6817775939	      885.3282465623	      -23.1797480295	        0.2301492499	        0.0000000000	        0.0555310767	       -1.5658799576	        0.9495620721	        0.1827714062	        0.0000000000	        0.0000000000	        0.0000000000	        0.0000000000	        0.0000000000	        0.0000000000	        0.0000000000	        0.0000000000	        0.0000000000	
        0.1108485757	     -115.4969128395	      825.5656384165	      -21.5874870419	        0.2356323919	        0.0000000000	        0.0549191847	       -0.8239438035	        0.4677378090	        0.0879047981	        0.0000000000	        0.0000000000	        0.0000000000	        0.0000000000	        0.0000000000	        0.0000000000	        0.0000000000	        0.0000000000	        0.0000000000	
        0.1231650841	     -100.1546461033	      768.7527449965	      -21.3842536053	        0.2406972610	        0.0000000000	        0.0542640829	       -0.4975865269	        0.2698335522	        0.0494766532	        0.0000000000	        0.0000000000	        0.0000000000	        0.0000000000	        0.0000000000	        0.0000000000	        0.0000000000	        0.0000000000	        0.0000000000	
        0.1354815925	      -86.5286172549	      721.0128733242	      -21.6910865719	        0.2451303122	        0.0000000000	        0.0537551374	       -0.2706034506	        0.1418825244	        0.0251841395	        0.0000000000	        0.0000000000	        0.0000000000	        0.0000000000	        0.0000000000	        0.0000000000	        0.0000000000	        0.0000000000	        0.0000000000	
        0.1477981009	      -74.7930228729	      684.5345897236	      -22.3796628785	        0.2491296572	        0.0000000000	        0.0533774205	       -0.1548641744	        0.0787466555	        0.0142152522	        0.0000000000	        0.0000000000	        0.0000000000	        0.0000000000	        0.0000000000	        0.0000000000	        0.0000000000	        0.0000000000	        0.0000000000	
        0.1601146093	      -64.0110896837	      656.7016887187	      -22.9773432321	        0.2528974680	        0.0000000000	        0.0530994456	       -0.1049558019	        0.0521015290	        0.0096522729	        0.0000000000	        0.0000000000	        0.0000000000	        0.0000000000	        0.0000000000	        0.0000000000	        0.0000000000	        0.0000000000	        0.0000000000	
        0.1724311177	      -54.2676891835	      634.1172096752	      -23.4691234331	        0.2565861056	        0.0000000000	        0.0528786771	       -0.0870376775	        0.0421971591	        0.0081464315	        0.0000000000	        0.0000000000	        0.0000000000	        0.0000000000	        0.0000000000	        0.0000000000	        0.0000000000	        0.0000000000	        0.0000000000	
        0.1847476261	      -45.4087872446	      616.3471130496	      -23.5677780303	        0.2603204816	        0.0000000000	        0.0526857682	       -0.0858293755	        0.0405646516	        0.0081895464	        0.0000000000	        0.0000000000	        0.0000000000	        0.0000000000	        0.0000000000	        0.0000000000	        0.0000000000	        0.0000000000	        0.0000000000	
        0.1970641346	      -37.5224399360	      602.5541907919	      -23.6952500998	        0.2642593145	        0.0000000000	        0.0524671980	       -0.0974133930	        0.0448634307	        0.0094545610	        0.0000000000	        0.0000000000	        0.0000000000	        0.0000000000	        0.0000000000	        0.0000000000	        0.0000000000	        0.0000000000	        0.0000000000	
        0.2093806430	      -31.2048970512	      592.0953701039	      -23.1264564402	        0.2682774648	        0.0000000000	        0.0522249902	       -0.1246215449	        0.0560342287	        0.0122169642	        0.0000000000	        0.0000000000	        0.0000000000	        0.0000000000	        0.0000000000	        0.0000000000	        0.0000000000	        0.0000000000	        0.0000000000	
        0.2216971514	      -24.9506052995	      584.6006010921	      -22.4985503526	        0.2725244307	        0.0000000000	        0.0519232238	       -0.1745738928	        0.0768413030	        0.0170595767	        0.0000000000	        0.0000000000	        0.0000000000	        0.0000000000	        0.0000000000	        0.0000000000	        0.0000000000	        0.0000000000	        0.0000000000	
        0.2340136598	      -19.7347365132	      579.4673778022	      -21.4869067022	        0.2770611498	        0.0000000000	        0.0515318684	       -0.2573126977	        0.1111779265	        0.0246570053	        0.0000000000	        0.0000000000	        0.0000000000	        0.0000000000	        0.0000000000	        0.0000000000	        0.0000000000	        0.0000000000	        0.0000000000	
        0.2463301682	      -15.0307974125	      575.8019102271	      -20.5217614930	        0.2816565102	        0.0000000000	        0.0510803645	       -0.3811537275	        0.1620464127	        0.0351950007	        0.0000000000	        0.0000000000	        0.0000000000	        0.0000000000	        0.0000000000	        0.0000000000	        0.0000000000	        0.0000000000	        0.0000000000	
        0.2586466766	      -10.5691528923	      572.7683220881	      -19.7418402922	        0.2863502506	        0.0000000000	        0.0505635891	       -0.5447616100	        0.2283794922	        0.0477082061	        0.0000000000	        0.0000000000	        0.0000000000	        0.0000000000	        0.0000000000	        0.0000000000	        0.0000000000	        0.0000000000	        0.0000000000	
        0.2709631850	       -6.5337301273	      569.8404232726	      -19.2288490320	        0.2911590591	        0.0000000000	        0.0499785412	       -0.7330936482	        0.3036883285	        0.0601512324	        0.0000000000	        0.0000000000	        0.0000000000	        0.0000000000	        0.0000000000	        0.0000000000	        0.0000000000	        0.0000000000	        0.0000000000	
        0.2832796934	       -2.9505274407	      566.9300970823	      -18.9179613227	        0.2960286566	        0.0000000000	        0.0493415387	       -0.9180589721	        0.3765810285	        0.0700556172	        0.0000000000	        0.0000000000	        0.0000000000	        0.0000000000	        0.0000000000	        0.0000000000	        0.0000000000	        0.0000000000	        0.0000000000	
        0.2955962018	        0.3812568949	      563.9582575028	      -18.6155532163	        0.3009024321	        0.0000000000	        0.0486729111	       -1.0706266061	        0.4356865249	        0.0755011653	        0.0000000000	        0.0000000000	        0.0000000000	        0.0000000000	        0.0000000000	        0.0000000000	        0.0000000000	        0.0000000000	        0.0000000000	
        0.3079127102	        3.4771436606	      560.6360701949	      -17.7345931298	        0.3057138021	        0.0000000000	        0.0479926725	       -1.1756631328	        0.4753914120	        0.0756365638	        0.0000000000	        0.0000000000	        0.0000000000	        0.0000000000	        0.0000000000	        0.0000000000	        0.0000000000	        0.0000000000	        0.0000000000	
        0.3202292187	        6.6317385595	      558.0061194179	      -16.2363182283	        0.3106140265	        0.0000000000	        0.0472703068	       -1.2330535247	        0.4960168792	        0.0702930793	        0.0000000000	        0.0000000000	        0.0000000000	        0.0000000000	        0.0000000000	        0.0000000000	        0.0000000000	        0.0000000000	        0.0000000000	
        0.3325457271	        9.8735384803	      556.9639593815	      -14.2600732110	        0.3157089009	        0.0000000000	        0.0464749834	       -1.2532641313	        0.5019264369	        0.0599625487	        0.0000000000	        0.0000000000	        0.0000000000	        0.0000000000	        0.0000000000	        0.0000000000	        0.0000000000	        0.0000000000	        0.0000000000	
        0.3448622355	       12.9826457363	      557.9181352693	      -13.0166839497	        0.3209478117	        0.0000000000	        0.0455954585	       -1.2532841045	        0.5000358218	        0.0465070711	        0.0000000000	        0.0000000000	        0.0000000000	        0.0000000000	        0.0000000000	        0.0000000000	        0.0000000000	        0.0000000000	        0.0000000000	
        0.3571787439	       16.1701059248	      562.8967051589	      -12.1174366104	        0.3263741505	        0.0000000000	        0.0446264358	       -1.2334237025	        0.4906307978	        0.0316978355	        0.0000000000	        0.0000000000	        0.0000000000	        0.0000000000	        0.0000000000	        0.0000000000	        0.0000000000	        0.0000000000	        0.0000000000	
